# xmcd
#
# Track frame offsets:
#	150
#	12567
#	23273
#	33759
#	43685
#	54956
#	69309
#	78615
#	89715
#	100702
#	112779
#	121429
#	131480
#	144362
#	155024
#	168868
#	180541
#	191491
#	202124
#	211483
#	223013
#	230923
#	242773
#	251391
#	264144
#	275118
#
# Disc length: 3830 seconds
#
# Revision: 0
# Processed by: cddbd v1.5.2PL0 Copyright (c) Steve Scherf et al.
# Submitted via: audiograbber 1.83.01
#
DISCID=6a0ef41a
DTITLE=George Jones - Big Box Of George Jones [CD3]
DYEAR=2015
DGENRE=Country
TTITLE0=Take The Devil Out Of Me
TTITLE1=Three's A Crowd
TTITLE2=Hey Good Lookin'
TTITLE3=Seasons Of My Soul
TTITLE4=My Soul's Been Satisfied
TTITLE5=Open Pit Mine
TTITLE6=Honky Tonkin'
TTITLE7=You Gotta Be My Baby
TTITLE8=Give Away Girl
TTITLE9=Peace In The Valley
TTITLE10=Roly Poly
TTITLE11=All I Want To Do
TTITLE12=Taggin' Along
TTITLE13=Treasure Of Love
TTITLE14=Give My Love To rose
TTITLE15=I Just Don't Like this Kind Of Livin'
TTITLE16=Searching (w Jeanette Hicks)
TTITLE17=Talk To Me Lonesome Heart
TTITLE18=Wings Of A Dove
TTITLE19=Your Cheating Heart
TTITLE20=I Want You, I Need You, I Love You
TTITLE21=Window Up Above
TTITLE22=I Want To Be Where Your Gonna Be
TTITLE23=San Antonio Rose
TTITLE24=I Gotta Talk To Your Heart
TTITLE25=A Girl I Used To Know
EXTD=
EXTT0=
EXTT1=
EXTT2=
EXTT3=
EXTT4=
EXTT5=
EXTT6=
EXTT7=
EXTT8=
EXTT9=
EXTT10=
EXTT11=
EXTT12=
EXTT13=
EXTT14=
EXTT15=
EXTT16=
EXTT17=
EXTT18=
EXTT19=
EXTT20=
EXTT21=
EXTT22=
EXTT23=
EXTT24=
EXTT25=
PLAYORDER=
